<?xml version="1.0" encoding="utf-8"?>
<!-- Generator: Adobe Illustrator 26.0.1, SVG Export Plug-In . SVG Version: 6.00 Build 0)  -->
<svg version="1.1" xmlns="http://www.w3.org/2000/svg" xmlns:xlink="http://www.w3.org/1999/xlink" x="0px" y="0px"
	 viewBox="0 0 5000 5000" style="enable-background:new 0 0 5000 5000;" xml:space="preserve">
<style type="text/css">
	.st0{fill:url(#SVGID_1_);}
	.st1{fill:#EFBCD5;}
	.st2{fill:#BE97C6;}
	.st3{fill:#2E294E;}
	.st4{fill:url(#SVGID_00000062906924056172967650000002010276762223905200_);}
</style>
<g id="logo">
	<linearGradient id="SVGID_1_" gradientUnits="userSpaceOnUse" x1="2762.4692" y1="3202.9304" x2="2166.3899" y2="1895.6284">
		<stop  offset="0" style="stop-color:#2E294E"/>
		<stop  offset="0.1797" style="stop-color:#322E57"/>
		<stop  offset="0.4725" style="stop-color:#3F3B6F"/>
		<stop  offset="0.84" style="stop-color:#525197"/>
		<stop  offset="1" style="stop-color:#5C5CAA"/>
	</linearGradient>
	<path class="st0" d="M2593.02,3102.56l-220.84-493.32l98.34-44.05l240.59,537.37H2593.02z M2679.38,2484.05
		c140.22-24.57,218.95-120.72,218.95-272.14c0-196.65-101.93-314.04-272.67-314.04c-21.03,0-41.27-0.2-60.85-0.39
		c-19.31-0.19-39.29-0.38-59.73-0.38v107.76c19.92,0,38.75,0.19,58.69,0.38c19.83,0.19,40.35,0.39,61.9,0.39
		c109.43,0,164.92,69.4,164.92,206.29c0,58.45-15.38,101.92-45.68,129.19c-30.57,27.49-78.17,41.43-141.5,41.43
		c-21.48,0-37.6-0.2-53.18-0.39c-15.06-0.19-29.28-0.36-47.44-0.36v107.76c17.49,0,31.38,0.17,46.09,0.35
		c4.4,0.06,8.82,0.12,13.41,0.16l300.65,612.42l120.11-0.1L2679.38,2484.05z M2127.3,2074.08c3.33-39.2,37.31-69.68,77.48-69.68
		h0.68c15.71,0.13,31.32,0.29,45.36,0.44c21.95,0.22,39.27,0.41,48.39,0.41v-107.76c-8.56,0-26.5-0.19-47.28-0.41
		c-14.08-0.15-29.76-0.31-45.55-0.44h-1.62c-45.99,0-90.08,16.83-124.36,47.49c-35.04,31.37-56.52,74.27-60.48,120.79
		c-0.16,1.78-0.28,3.55-0.39,5.32c-4.51,75.72,17.34,153.67,36.62,222.45c10.72,38.25,20.85,74.4,24.36,103.26
		c3.55,29.12-1.11,38.92-3.28,41.79c-4.83,6.36-22.89,13.16-59.11,13.16v107.76c48.8,0,58.83,11.45,59.81,12.76
		c1.5,1.98,6.09,10.59,2.58,38.21c-3.49,27.38-13.41,61.95-23.93,98.56c-19.5,67.95-41.6,144.97-37.06,221.27
		c0.12,1.78,0.23,3.55,0.39,5.33c3.96,46.54,25.44,89.44,60.48,120.79c34.28,30.67,78.37,47.5,124.36,47.5c0.54,0,1.08,0,1.62-0.01
		c15.79-0.13,31.47-0.29,45.55-0.44c20.78-0.22,38.72-0.39,47.28-0.39v-107.76c-9.12,0-26.44,0.17-48.39,0.39
		c-14.04,0.15-29.65,0.31-45.36,0.45c-40.47,0.32-74.82-30.26-78.17-69.69c-0.07-0.86-0.13-1.7-0.19-2.58
		c-3.45-57.9,15.12-122.58,33.07-185.13c25.28-88.04,49.15-171.21,3.84-231.33c-0.63-0.83-1.27-1.65-1.91-2.46
		c0.33-0.42,0.67-0.84,0.99-1.28c46.64-61.51,22.44-147.83-3.19-239.24c-17.82-63.56-36.25-129.3-32.81-186.96
		C2127.17,2075.8,2127.23,2074.94,2127.3,2074.08z"/>
</g>
<g id="color_1">
</g>
<g id="color_2">
</g>
<g id="color_3">
</g>
<g id="gradient">
</g>
</svg>
