<svg width="21" height="50" viewBox="0 0 21 50" fill="none" xmlns="http://www.w3.org/2000/svg">
    <g clip-path="url(#clip0_1_3)">
        <path opacity="0.75"
            d="M11.14 46.68C10.9416 46.876 10.6739 46.986 10.395 46.986C10.1161 46.986 9.84842 46.876 9.65001 46.68V46.68L4.81999 41.83C4.61989 41.6334 4.35055 41.5231 4.06999 41.5231C3.78943 41.5231 3.5201 41.6334 3.31999 41.83V41.83C3.12396 42.0284 3.01402 42.2961 3.01402 42.575C3.01402 42.8539 3.12396 43.1216 3.31999 43.32L8.16002 48.17C8.75567 48.7611 9.56083 49.0928 10.4 49.0928C11.2392 49.0928 12.0443 48.7611 12.64 48.17L17.49 43.32C17.6817 43.1213 17.7893 42.8562 17.79 42.58C17.7898 42.3008 17.6823 42.0324 17.49 41.83C17.2899 41.6334 17.0205 41.5231 16.74 41.5231C16.4594 41.5231 16.1901 41.6334 15.99 41.83V41.83L11.14 46.68Z"
            fill="#EFBCD5" />
        <g opacity="0.75">
            <path
                d="M11.12 -1.90735e-06C11.82 0.129998 12.52 0.190013 13.21 0.390013C15.4246 1.02276 17.3679 2.37006 18.737 4.22217C20.1062 6.07427 20.8245 8.32719 20.78 10.63C20.78 15.32 20.78 20 20.78 24.69C20.8235 26.2234 20.5195 27.7467 19.8909 29.146C19.2623 30.5453 18.3253 31.7842 17.15 32.77C16.05 33.7139 14.7643 34.4167 13.3759 34.833C11.9875 35.2494 10.5273 35.3701 9.0894 35.1873C7.6515 35.0045 6.26785 34.5222 5.02781 33.7717C3.78777 33.0212 2.71886 32.0191 1.88999 30.83C0.649457 29.0773 -0.00507269 26.9772 0.0199986 24.83C0.0199986 20.03 -0.0400014 15.23 0.0199986 10.43C-0.0207593 8.38373 0.556802 6.37278 1.67723 4.66003C2.79765 2.94728 4.40877 1.61246 6.29997 0.830015C7.28581 0.386385 8.34185 0.118966 9.42002 0.0399761L9.72001 -0.0100117L11.12 -1.90735e-06ZM18.64 17.66C18.64 15.33 18.64 12.99 18.64 10.66C18.66 10.2702 18.66 9.87973 18.64 9.48999C18.4016 7.39153 17.3759 5.46171 15.77 4.09002C14.4705 2.98781 12.8619 2.31446 11.1647 2.16229C9.46753 2.01012 7.76487 2.38653 6.29002 3.23999C5.00439 3.96202 3.94082 5.0221 3.21458 6.30536C2.48834 7.58861 2.12714 9.04614 2.17002 10.52C2.17002 15.27 2.17002 20.03 2.17002 24.78C2.16977 25.2182 2.19981 25.656 2.25999 26.09C2.46774 27.5242 3.04958 28.8782 3.94694 30.0161C4.8443 31.1539 6.02552 32.0353 7.37174 32.5715C8.71797 33.1078 10.1817 33.28 11.6156 33.0708C13.0495 32.8616 14.4031 32.2785 15.54 31.38C16.4827 30.6843 17.2533 29.7817 17.7925 28.7415C18.3316 27.7013 18.625 26.5513 18.65 25.38C18.7 22.8 18.64 20.23 18.64 17.66V17.66Z"
                fill="#EFBCD5" />
            <path
                d="M11.46 10.53C11.46 11.3 11.46 12.07 11.46 12.84C11.46 13.1212 11.3483 13.3908 11.1495 13.5895C10.9507 13.7883 10.6811 13.9 10.4 13.9C10.1189 13.9 9.8492 13.7883 9.65041 13.5895C9.45162 13.3908 9.33998 13.1212 9.33998 12.84C9.33998 11.2934 9.33998 9.74334 9.33998 8.19001C9.32751 8.0408 9.3462 7.89063 9.39485 7.74903C9.44351 7.60743 9.52108 7.47746 9.62264 7.36744C9.7242 7.25742 9.8475 7.16974 9.98476 7.10993C10.122 7.05012 10.2703 7.01951 10.42 7.02003C10.5638 7.02738 10.7046 7.06397 10.8339 7.12757C10.9631 7.19117 11.0781 7.28041 11.1716 7.3899C11.2652 7.49939 11.3355 7.62685 11.3782 7.76441C11.4209 7.90197 11.4351 8.04677 11.42 8.19001C11.47 8.94001 11.46 9.75004 11.46 10.53Z"
                fill="#EFBCD5" />
        </g>
    </g>
    <defs>
        <clipPath id="clip0_1_3">
            <rect width="20.79" height="49.1" fill="white" />
        </clipPath>
    </defs>
</svg>